<svg width="323" height="264" viewBox="0 0 323 264" fill="none" xmlns="http://www.w3.org/2000/svg">
<path fill-rule="evenodd" clip-rule="evenodd" d="M191.5 398C297.263 398 383 308.905 383 199C383 89.0953 297.263 0 191.5 0C85.7375 0 0 89.0953 0 199C0 308.905 85.7375 398 191.5 398ZM156.594 208.95C156.594 174.671 160.606 143.675 167.071 121.281C170.306 110.077 174.138 101.083 178.35 94.9125C182.584 88.7093 187.045 85.5747 191.5 85.5747C195.955 85.5747 200.416 88.7093 204.65 94.9125C208.862 101.083 212.694 110.077 215.929 121.281C222.394 143.675 226.406 174.671 226.406 208.95C226.406 243.228 222.394 274.224 215.929 296.619C212.694 307.823 208.862 316.817 204.65 322.987C200.416 329.19 195.955 332.325 191.5 332.325C187.045 332.325 182.584 329.19 178.35 322.987C174.138 316.817 170.306 307.823 167.071 296.619C160.606 274.224 156.594 243.228 156.594 208.95ZM217.85 120.726C222.491 136.8 225.866 157.202 227.432 180.012C228.59 164.096 230.681 149.847 233.445 138.359C235.621 129.315 238.227 121.927 241.157 116.775C244.043 111.701 247.448 108.45 251.344 108.45C255.24 108.45 258.645 111.701 261.531 116.775C264.461 121.927 267.067 129.315 269.242 138.359C272.782 153.071 275.217 172.312 276.006 193.782C276.903 188.515 278.123 183.74 279.599 179.65C281.246 175.086 283.231 171.321 285.485 168.679C287.737 166.041 290.351 164.418 293.234 164.418C296.117 164.418 298.732 166.041 300.983 168.679C303.238 171.321 305.223 175.086 306.87 179.65C310.167 188.788 312.188 201.346 312.188 215.168C312.188 228.991 310.167 241.549 306.87 250.686C305.223 255.251 303.238 259.016 300.983 261.658C298.732 264.296 296.117 265.918 293.234 265.918C290.351 265.918 287.737 264.296 285.485 261.658C283.231 259.016 281.246 255.251 279.599 250.686C277.851 245.844 276.463 240.04 275.543 233.597C274.464 251.244 272.252 267.029 269.242 279.541C267.067 288.584 264.461 295.973 261.531 301.125C258.645 306.199 255.24 309.45 251.344 309.45C247.448 309.45 244.043 306.199 241.157 301.125C238.227 295.973 235.621 288.584 233.445 279.541C230.681 268.052 228.59 253.803 227.432 237.887C225.866 260.697 222.491 281.099 217.85 297.173C214.587 308.477 210.682 317.697 206.302 324.114C201.945 330.499 196.96 334.325 191.5 334.325C186.04 334.325 181.055 330.499 176.698 324.114C172.318 317.697 168.413 308.477 165.15 297.173C160.509 281.099 157.134 260.697 155.568 237.887C154.41 253.803 152.319 268.052 149.555 279.541C147.379 288.584 144.773 295.973 141.843 301.125C138.957 306.199 135.552 309.45 131.656 309.45C127.76 309.45 124.355 306.199 121.469 301.125C118.539 295.973 115.933 288.584 113.758 279.541C110.748 267.029 108.536 251.244 107.457 233.597C106.537 240.04 105.149 245.844 103.401 250.686C101.754 255.251 99.7689 259.016 97.5145 261.658C95.2635 264.296 92.6487 265.918 89.7656 265.918C86.8826 265.918 84.2678 264.296 82.0167 261.658C79.7624 259.016 77.7775 255.251 76.1302 250.686C72.8327 241.549 70.8125 228.991 70.8125 215.168C70.8125 201.346 72.8327 188.788 76.1302 179.65C77.7775 175.086 79.7624 171.321 82.0167 168.679C84.2678 166.041 86.8826 164.418 89.7656 164.418C92.6487 164.418 95.2635 166.041 97.5145 168.679C99.7689 171.321 101.754 175.086 103.401 179.65C104.877 183.74 106.097 188.515 106.994 193.782C107.782 172.312 110.218 153.071 113.758 138.359C115.933 129.315 118.539 121.927 121.469 116.775C124.355 111.701 127.76 108.45 131.656 108.45C135.552 108.45 138.957 111.701 141.843 116.775C144.773 121.927 147.379 129.315 149.555 138.359C152.319 149.847 154.41 164.096 155.568 180.012C157.134 157.202 160.509 136.8 165.15 120.726C168.413 109.422 172.318 100.202 176.698 93.785C181.055 87.4007 186.04 83.5747 191.5 83.5747C196.96 83.5747 201.945 87.4007 206.302 93.785C210.682 100.202 214.587 109.422 217.85 120.726ZM235.39 279.073C231.081 261.164 228.406 236.371 228.406 208.95C228.406 181.528 231.081 156.736 235.39 138.826C237.546 129.864 240.098 122.681 242.895 117.763C245.737 112.767 248.629 110.45 251.344 110.45C254.058 110.45 256.95 112.767 259.792 117.763C262.589 122.681 265.142 129.864 267.298 138.826C271.606 156.736 274.281 181.528 274.281 208.95C274.281 236.371 271.606 261.164 267.298 279.073C265.142 288.035 262.589 295.218 259.792 300.136C256.95 305.132 254.058 307.45 251.344 307.45C248.629 307.45 245.737 305.132 242.895 300.136C240.098 295.218 237.546 288.035 235.39 279.073ZM108.719 208.95C108.719 181.528 111.394 156.736 115.702 138.826C117.858 129.864 120.411 122.681 123.208 117.763C126.05 112.767 128.942 110.45 131.656 110.45C134.371 110.45 137.263 112.767 140.105 117.763C142.902 122.681 145.454 129.864 147.61 138.826C151.919 156.736 154.594 181.528 154.594 208.95C154.594 236.371 151.919 261.164 147.61 279.073C145.454 288.035 142.902 295.218 140.105 300.136C137.263 305.132 134.371 307.45 131.656 307.45C128.942 307.45 126.05 305.132 123.208 300.136C120.411 295.218 117.858 288.035 115.702 279.073C111.394 261.164 108.719 236.371 108.719 208.95ZM72.8125 215.168C72.8125 201.515 74.8112 189.198 78.0115 180.329C79.6131 175.891 81.4968 172.37 83.5382 169.977C85.5829 167.581 87.691 166.418 89.7656 166.418C91.8402 166.418 93.9483 167.581 95.993 169.977C98.0345 172.37 99.9181 175.891 101.52 180.329C104.72 189.198 106.719 201.515 106.719 215.168C106.719 228.822 104.72 241.139 101.52 250.008C99.9181 254.446 98.0345 257.967 95.993 260.36C93.9483 262.756 91.8402 263.918 89.7656 263.918C87.691 263.918 85.5829 262.756 83.5382 260.36C81.4968 257.967 79.6131 254.446 78.0115 250.008C74.8112 241.139 72.8125 228.822 72.8125 215.168ZM276.281 215.168C276.281 201.515 278.28 189.198 281.48 180.329C283.082 175.891 284.966 172.37 287.007 169.977C289.052 167.581 291.16 166.418 293.234 166.418C295.309 166.418 297.417 167.581 299.462 169.977C301.503 172.37 303.387 175.891 304.989 180.329C308.189 189.198 310.188 201.515 310.188 215.168C310.188 228.822 308.189 241.139 304.989 250.008C303.387 254.446 301.503 257.967 299.462 260.36C297.417 262.756 295.309 263.918 293.234 263.918C291.16 263.918 289.052 262.756 287.007 260.36C284.966 257.967 283.082 254.446 281.48 250.008C278.28 241.139 276.281 228.822 276.281 215.168Z" fill="black"/>
</svg>
